<mxfile host="app.diagrams.net" modified="2024-02-25T14:58:42.947Z" agent="Mozilla/5.0 (Windows NT 10.0; Win64; x64) AppleWebKit/537.36 (KHTML, like Gecko) Chrome/121.0.0.0 Safari/537.36" etag="A-0j_F_RJVHfWouc4_xF" version="23.1.6" type="device">
  <diagram id="C5RBs43oDa-KdzZeNtuy" name="Page-1">
    <mxGraphModel dx="1060" dy="687" grid="1" gridSize="10" guides="1" tooltips="1" connect="1" arrows="1" fold="1" page="1" pageScale="1" pageWidth="827" pageHeight="1169" math="0" shadow="0">
      <root>
        <mxCell id="WIyWlLk6GJQsqaUBKTNV-0" />
        <mxCell id="WIyWlLk6GJQsqaUBKTNV-1" parent="WIyWlLk6GJQsqaUBKTNV-0" />
        <mxCell id="zkfFHV4jXpPFQw0GAbJ--0" value="Screen" style="swimlane;fontStyle=2;align=center;verticalAlign=top;childLayout=stackLayout;horizontal=1;startSize=26;horizontalStack=0;resizeParent=1;resizeLast=0;collapsible=1;marginBottom=0;rounded=0;shadow=0;strokeWidth=1;" parent="WIyWlLk6GJQsqaUBKTNV-1" vertex="1">
          <mxGeometry x="190" y="120" width="190" height="280" as="geometry">
            <mxRectangle x="230" y="140" width="160" height="26" as="alternateBounds" />
          </mxGeometry>
        </mxCell>
        <mxCell id="zkfFHV4jXpPFQw0GAbJ--4" value="" style="line;html=1;strokeWidth=1;align=left;verticalAlign=middle;spacingTop=-1;spacingLeft=3;spacingRight=3;rotatable=0;labelPosition=right;points=[];portConstraint=eastwest;" parent="zkfFHV4jXpPFQw0GAbJ--0" vertex="1">
          <mxGeometry y="26" width="190" height="8" as="geometry" />
        </mxCell>
        <mxCell id="zkfFHV4jXpPFQw0GAbJ--5" value="main():void" style="text;align=left;verticalAlign=top;spacingLeft=4;spacingRight=4;overflow=hidden;rotatable=0;points=[[0,0.5],[1,0.5]];portConstraint=eastwest;fontSize=12;" parent="zkfFHV4jXpPFQw0GAbJ--0" vertex="1">
          <mxGeometry y="34" width="190" height="26" as="geometry" />
        </mxCell>
        <mxCell id="e8-VoA4X-CUjs1Hu8N__-1" value="&lt;font style=&quot;font-size: 12px;&quot;&gt;iniTextFieldIn():void&lt;/font&gt;" style="text;whiteSpace=wrap;html=1;" vertex="1" parent="zkfFHV4jXpPFQw0GAbJ--0">
          <mxGeometry y="60" width="190" height="30" as="geometry" />
        </mxCell>
        <mxCell id="e8-VoA4X-CUjs1Hu8N__-2" value="&lt;font style=&quot;font-size: 13px;&quot;&gt;setTextFieldIn(String,int):void&lt;/font&gt;" style="text;whiteSpace=wrap;html=1;" vertex="1" parent="zkfFHV4jXpPFQw0GAbJ--0">
          <mxGeometry y="90" width="190" height="30" as="geometry" />
        </mxCell>
        <mxCell id="e8-VoA4X-CUjs1Hu8N__-4" value="&lt;span style=&quot;background-color:#ffffff;padding:0px 0px 0px 2px;&quot;&gt;&lt;span style=&quot;color: rgb(0, 0, 0); background-color: rgb(255, 255, 255);&quot;&gt;&lt;span style=&quot;color: rgb(0, 0, 0);&quot;&gt;&lt;font style=&quot;font-size: 12px;&quot;&gt;iniTextFieldPump():void&lt;/font&gt;&lt;/span&gt;&lt;/span&gt;&lt;/span&gt;" style="text;whiteSpace=wrap;html=1;" vertex="1" parent="zkfFHV4jXpPFQw0GAbJ--0">
          <mxGeometry y="120" width="190" height="40" as="geometry" />
        </mxCell>
        <mxCell id="e8-VoA4X-CUjs1Hu8N__-5" value="&lt;span style=&quot;padding: 0px 0px 0px 2px;&quot;&gt;&lt;span style=&quot;color: rgb(0, 0, 0); background-color: rgb(255, 255, 255);&quot;&gt;&lt;font size=&quot;1&quot; style=&quot;&quot; face=&quot;Helvetica&quot;&gt;&lt;span style=&quot;color: rgb(0, 0, 0);&quot;&gt;&lt;/span&gt;&lt;span style=&quot;color: rgb(0, 0, 0); font-size: 12px;&quot;&gt;setTextFieldPump(String,int):void&lt;/span&gt;&lt;/font&gt;&lt;/span&gt;&lt;/span&gt;" style="text;whiteSpace=wrap;html=1;" vertex="1" parent="zkfFHV4jXpPFQw0GAbJ--0">
          <mxGeometry y="160" width="190" height="40" as="geometry" />
        </mxCell>
        <mxCell id="e8-VoA4X-CUjs1Hu8N__-6" value="&lt;span style=&quot;padding: 0px 0px 0px 2px;&quot;&gt;&lt;span style=&quot;color: rgb(0, 0, 0);&quot;&gt;&lt;span style=&quot;color: rgb(0, 0, 0);&quot;&gt;&lt;font style=&quot;font-size: 12px;&quot; face=&quot;Helvetica&quot;&gt;iniTextFieldOut():void&lt;/font&gt;&lt;/span&gt;&lt;/span&gt;&lt;/span&gt;" style="text;whiteSpace=wrap;html=1;" vertex="1" parent="zkfFHV4jXpPFQw0GAbJ--0">
          <mxGeometry y="200" width="190" height="40" as="geometry" />
        </mxCell>
        <mxCell id="e8-VoA4X-CUjs1Hu8N__-7" value="&lt;span style=&quot;padding: 0px 0px 0px 2px;&quot;&gt;&lt;span style=&quot;color: rgb(0, 0, 0);&quot;&gt;&lt;font size=&quot;1&quot;&gt;&lt;span style=&quot;color: rgb(0, 0, 0);&quot;&gt;&lt;/span&gt;&lt;span style=&quot;color: rgb(0, 0, 0); font-size: 12px;&quot;&gt;setTextFieldOut(String,int):void&lt;/span&gt;&lt;/font&gt;&lt;/span&gt;&lt;/span&gt;" style="text;whiteSpace=wrap;html=1;" vertex="1" parent="zkfFHV4jXpPFQw0GAbJ--0">
          <mxGeometry y="240" width="190" height="40" as="geometry" />
        </mxCell>
        <mxCell id="zkfFHV4jXpPFQw0GAbJ--6" value="JFrame" style="swimlane;fontStyle=0;align=center;verticalAlign=top;childLayout=stackLayout;horizontal=1;startSize=26;horizontalStack=0;resizeParent=1;resizeLast=0;collapsible=1;marginBottom=0;rounded=0;shadow=0;strokeWidth=1;" parent="WIyWlLk6GJQsqaUBKTNV-1" vertex="1">
          <mxGeometry x="205" y="460" width="160" height="40" as="geometry">
            <mxRectangle x="130" y="380" width="160" height="26" as="alternateBounds" />
          </mxGeometry>
        </mxCell>
        <mxCell id="zkfFHV4jXpPFQw0GAbJ--9" value="" style="line;html=1;strokeWidth=1;align=left;verticalAlign=middle;spacingTop=-1;spacingLeft=3;spacingRight=3;rotatable=0;labelPosition=right;points=[];portConstraint=eastwest;" parent="zkfFHV4jXpPFQw0GAbJ--6" vertex="1">
          <mxGeometry y="26" width="160" height="8" as="geometry" />
        </mxCell>
        <mxCell id="zkfFHV4jXpPFQw0GAbJ--12" value="" style="endArrow=block;endSize=10;endFill=0;shadow=0;strokeWidth=1;rounded=0;edgeStyle=elbowEdgeStyle;elbow=vertical;" parent="WIyWlLk6GJQsqaUBKTNV-1" source="zkfFHV4jXpPFQw0GAbJ--6" target="zkfFHV4jXpPFQw0GAbJ--0" edge="1">
          <mxGeometry width="160" relative="1" as="geometry">
            <mxPoint x="200" y="203" as="sourcePoint" />
            <mxPoint x="200" y="203" as="targetPoint" />
          </mxGeometry>
        </mxCell>
        <mxCell id="zkfFHV4jXpPFQw0GAbJ--17" value="TwoWaySerialComm" style="swimlane;fontStyle=0;align=center;verticalAlign=top;childLayout=stackLayout;horizontal=1;startSize=26;horizontalStack=0;resizeParent=1;resizeLast=0;collapsible=1;marginBottom=0;rounded=0;shadow=0;strokeWidth=1;" parent="WIyWlLk6GJQsqaUBKTNV-1" vertex="1">
          <mxGeometry x="508" y="120" width="160" height="434" as="geometry">
            <mxRectangle x="550" y="140" width="160" height="26" as="alternateBounds" />
          </mxGeometry>
        </mxCell>
        <mxCell id="zkfFHV4jXpPFQw0GAbJ--23" value="" style="line;html=1;strokeWidth=1;align=left;verticalAlign=middle;spacingTop=-1;spacingLeft=3;spacingRight=3;rotatable=0;labelPosition=right;points=[];portConstraint=eastwest;" parent="zkfFHV4jXpPFQw0GAbJ--17" vertex="1">
          <mxGeometry y="26" width="160" height="8" as="geometry" />
        </mxCell>
        <mxCell id="e8-VoA4X-CUjs1Hu8N__-10" value="&lt;span style=&quot;padding: 0px 0px 0px 2px;&quot;&gt;&lt;span style=&quot;color: rgb(0, 0, 0);&quot;&gt;&lt;font face=&quot;Helvetica&quot; style=&quot;&quot; size=&quot;1&quot;&gt;&lt;span style=&quot;color: rgb(0, 0, 0);&quot;&gt;&lt;/span&gt;&lt;span style=&quot;color: rgb(0, 0, 0); font-size: 12px;&quot;&gt;connect():void&lt;/span&gt;&lt;/font&gt;&lt;/span&gt;&lt;/span&gt;" style="text;whiteSpace=wrap;html=1;" vertex="1" parent="zkfFHV4jXpPFQw0GAbJ--17">
          <mxGeometry y="34" width="160" height="40" as="geometry" />
        </mxCell>
        <mxCell id="e8-VoA4X-CUjs1Hu8N__-11" value="readResponse():String" style="text;whiteSpace=wrap;" vertex="1" parent="zkfFHV4jXpPFQw0GAbJ--17">
          <mxGeometry y="74" width="160" height="40" as="geometry" />
        </mxCell>
        <mxCell id="e8-VoA4X-CUjs1Hu8N__-12" value="sendCommand(String):void" style="text;whiteSpace=wrap;" vertex="1" parent="zkfFHV4jXpPFQw0GAbJ--17">
          <mxGeometry y="114" width="160" height="40" as="geometry" />
        </mxCell>
        <mxCell id="e8-VoA4X-CUjs1Hu8N__-13" value="sendPump(String):String" style="text;whiteSpace=wrap;" vertex="1" parent="zkfFHV4jXpPFQw0GAbJ--17">
          <mxGeometry y="154" width="160" height="40" as="geometry" />
        </mxCell>
        <mxCell id="e8-VoA4X-CUjs1Hu8N__-14" value="sendVer():void" style="text;whiteSpace=wrap;" vertex="1" parent="zkfFHV4jXpPFQw0GAbJ--17">
          <mxGeometry y="194" width="160" height="40" as="geometry" />
        </mxCell>
        <mxCell id="e8-VoA4X-CUjs1Hu8N__-15" value="sendSpin():String" style="text;whiteSpace=wrap;" vertex="1" parent="zkfFHV4jXpPFQw0GAbJ--17">
          <mxGeometry y="234" width="160" height="40" as="geometry" />
        </mxCell>
        <mxCell id="e8-VoA4X-CUjs1Hu8N__-16" value="sendSpout():String" style="text;whiteSpace=wrap;" vertex="1" parent="zkfFHV4jXpPFQw0GAbJ--17">
          <mxGeometry y="274" width="160" height="40" as="geometry" />
        </mxCell>
        <mxCell id="e8-VoA4X-CUjs1Hu8N__-17" value="gain(String, double):void" style="text;whiteSpace=wrap;" vertex="1" parent="zkfFHV4jXpPFQw0GAbJ--17">
          <mxGeometry y="314" width="160" height="40" as="geometry" />
        </mxCell>
        <mxCell id="e8-VoA4X-CUjs1Hu8N__-18" value="output(String, double):void" style="text;whiteSpace=wrap;" vertex="1" parent="zkfFHV4jXpPFQw0GAbJ--17">
          <mxGeometry y="354" width="160" height="40" as="geometry" />
        </mxCell>
        <mxCell id="e8-VoA4X-CUjs1Hu8N__-19" value="current(String, double):void" style="text;whiteSpace=wrap;" vertex="1" parent="zkfFHV4jXpPFQw0GAbJ--17">
          <mxGeometry y="394" width="160" height="40" as="geometry" />
        </mxCell>
        <mxCell id="zkfFHV4jXpPFQw0GAbJ--26" value="" style="endArrow=open;shadow=0;strokeWidth=1;rounded=0;endFill=1;edgeStyle=elbowEdgeStyle;elbow=vertical;startArrow=open;startFill=0;" parent="WIyWlLk6GJQsqaUBKTNV-1" source="zkfFHV4jXpPFQw0GAbJ--0" target="zkfFHV4jXpPFQw0GAbJ--17" edge="1">
          <mxGeometry x="0.5" y="41" relative="1" as="geometry">
            <mxPoint x="380" y="192" as="sourcePoint" />
            <mxPoint x="540" y="192" as="targetPoint" />
            <mxPoint x="-40" y="32" as="offset" />
          </mxGeometry>
        </mxCell>
        <mxCell id="zkfFHV4jXpPFQw0GAbJ--27" value="1" style="resizable=0;align=left;verticalAlign=bottom;labelBackgroundColor=none;fontSize=12;" parent="zkfFHV4jXpPFQw0GAbJ--26" connectable="0" vertex="1">
          <mxGeometry x="-1" relative="1" as="geometry">
            <mxPoint y="4" as="offset" />
          </mxGeometry>
        </mxCell>
        <mxCell id="zkfFHV4jXpPFQw0GAbJ--28" value="1" style="resizable=0;align=right;verticalAlign=bottom;labelBackgroundColor=none;fontSize=12;" parent="zkfFHV4jXpPFQw0GAbJ--26" connectable="0" vertex="1">
          <mxGeometry x="1" relative="1" as="geometry">
            <mxPoint x="-7" y="4" as="offset" />
          </mxGeometry>
        </mxCell>
      </root>
    </mxGraphModel>
  </diagram>
</mxfile>
